<?xml version="1.0" encoding="utf-8"?>
<!-- Generator: Adobe Illustrator 19.0.0, SVG Export Plug-In . SVG Version: 6.00 Build 0)  -->
<svg version="1.1" id="Layer_1" xmlns="http://www.w3.org/2000/svg" xmlns:xlink="http://www.w3.org/1999/xlink" x="0px" y="0px"
	 viewBox="-84 1.8 130.5 118.2" style="enable-background:new -84 1.8 130.5 118.2;" xml:space="preserve">
<style type="text/css">
	.st0{fill-rule:evenodd;clip-rule:evenodd;fill:#FFFFFF;}
	.st1{fill:#FFFFFF;}
	.st2{clip-path:url(#XMLID_2_);}
	.st3{fill-rule:evenodd;clip-rule:evenodd;fill:url(#XMLID_3_);}
	.st4{fill:#ED1C24;}
</style>
<g id="XMLID_1449_">
	<g id="XMLID_12791_">
		<g id="XMLID_12829_">
			<rect id="XMLID_12830_" x="-84" y="1.8" class="st0" width="130.5" height="100.2"/>
		</g>
		<g id="XMLID_12796_">
			<path id="XMLID_12828_" class="st1" d="M-76.6,115.9h-2.7c-0.4,0-0.5-0.1-0.5-0.4v-5.3c0-0.3-0.1-0.5-0.5-0.5h-0.1
				c-0.4,0-0.5,0.1-0.5,0.5v5.4c0,0.9,0.4,1.2,1.4,1.2h2.9c0.4,0,0.5-0.1,0.5-0.4v-0.1C-76.1,116-76.2,115.9-76.6,115.9z"/>
			<path id="XMLID_12827_" class="st1" d="M-71,111.4h-0.1c-0.4,0-0.5,0.1-0.5,0.4v3c0,0.7-0.2,1.1-1.5,1.1c-1.3,0-1.5-0.4-1.5-1.1
				v-3c0-0.3-0.1-0.4-0.5-0.4h-0.1c-0.4,0-0.5,0.1-0.5,0.4v3c0,1.4,0.9,2.1,2.6,2.1c1.7,0,2.6-0.7,2.6-2.1v-3
				C-70.5,111.5-70.6,111.4-71,111.4z"/>
			<path id="XMLID_12826_" class="st1" d="M-68,111h0.1c0.3,0,0.4,0,0.6-0.3l0.3-0.4c0.1-0.2,0.3-0.2,0.4,0l0.3,0.4
				c0.2,0.2,0.3,0.3,0.6,0.3h0.1c0.1,0,0.3,0,0.3-0.1c0-0.1,0-0.2-0.1-0.3l-0.5-0.6c-0.3-0.4-0.5-0.6-0.9-0.6
				c-0.4,0-0.6,0.2-0.9,0.6l-0.5,0.6c-0.1,0.1-0.1,0.2-0.1,0.3C-68.3,111-68.2,111-68,111z"/>
			<path id="XMLID_12823_" class="st1" d="M-66.9,111.3c-1.8,0-2.7,0.8-2.7,2.3v1c0,1.6,0.9,2.3,2.7,2.3c1.8,0,2.7-0.8,2.7-2.3v-1
				C-64.2,112.1-65.1,111.3-66.9,111.3z M-68.5,113.6c0-0.9,0.3-1.4,1.6-1.4c1.2,0,1.6,0.4,1.6,1.4v1c0,1-0.4,1.4-1.6,1.4
				c-1.2,0-1.6-0.4-1.6-1.4V113.6z"/>
			<path id="XMLID_12822_" class="st1" d="M-60.6,111.3c-1.7,0-2.6,0.7-2.6,2.1v3c0,0.4,0.2,0.4,0.5,0.4h0.1c0.4,0,0.5-0.1,0.5-0.4
				v-3c0-0.7,0.3-1.1,1.5-1.1c1.2,0,1.5,0.4,1.5,1.1v3c0,0.3,0.1,0.4,0.5,0.4h0.1c0.4,0,0.5-0.1,0.5-0.4v-3
				C-58,112-58.9,111.3-60.6,111.3z"/>
			<path id="XMLID_12821_" class="st1" d="M-48,109.7h-0.1c-0.4,0-0.5,0.1-0.6,0.4l-1.5,5.2c-0.1,0.6-0.3,0.6-0.6,0.6
				c-0.4,0-0.5-0.1-0.6-0.7l-1.5-5.2c-0.1-0.3-0.2-0.4-0.6-0.4h-0.1c-0.2,0-0.3,0-0.4,0.1c-0.1,0.1,0,0.2,0,0.4l1.5,5.1
				c0.2,0.6,0.4,1.1,0.6,1.3c0.2,0.2,0.6,0.3,1.2,0.3c0.5,0,0.9-0.1,1.2-0.3c0.2-0.2,0.4-0.6,0.6-1.3l1.5-5.1c0-0.1,0.1-0.3,0-0.4
				C-47.7,109.8-47.8,109.7-48,109.7z"/>
			<path id="XMLID_12820_" class="st1" d="M-46.3,111.4h-0.1c-0.4,0-0.5,0.1-0.5,0.4v4.6c0,0.4,0.2,0.4,0.5,0.4h0.1
				c0.4,0,0.5-0.1,0.5-0.4v-4.6C-45.8,111.5-45.9,111.4-46.3,111.4z"/>
			<path id="XMLID_12819_" class="st1" d="M-46.3,111c0.1,0,0.3,0,0.3-0.1c0.1-0.1,0-0.2-0.1-0.3l-0.5-0.9c-0.2-0.3-0.3-0.4-0.7-0.4
				h-0.1c-0.2,0-0.3,0-0.4,0.1c0,0.1,0,0.2,0.1,0.3l0.6,0.9c0.1,0.2,0.3,0.3,0.6,0.3H-46.3z"/>
			<path id="XMLID_12818_" class="st1" d="M-36.1,109.7h-0.1c-0.4,0-0.5,0.1-0.5,0.5v2.4h-3.5v-2.4c0-0.3-0.1-0.5-0.5-0.5h-0.1
				c-0.4,0-0.5,0.1-0.5,0.5v6.2c0,0.3,0.1,0.5,0.5,0.5h0.1c0.4,0,0.5-0.1,0.5-0.5v-2.8h3.5v2.8c0,0.3,0.1,0.5,0.5,0.5h0.1
				c0.4,0,0.5-0.1,0.5-0.5v-6.2C-35.6,109.9-35.7,109.7-36.1,109.7z"/>
			<path id="XMLID_12815_" class="st1" d="M-31.7,111.3c-1.8,0-2.7,0.8-2.7,2.3v1c0,1.6,0.9,2.3,2.7,2.3c1.8,0,2.7-0.8,2.7-2.3v-1
				C-29,112.1-29.9,111.3-31.7,111.3z M-33.4,113.6c0-0.9,0.3-1.4,1.6-1.4c1.2,0,1.6,0.4,1.6,1.4v1c0,1-0.4,1.4-1.6,1.4
				c-1.2,0-1.6-0.4-1.6-1.4V113.6z"/>
			<path id="XMLID_12814_" class="st1" d="M-32.9,111h0.1c0.3,0,0.4,0,0.6-0.3l0.3-0.4c0.1-0.2,0.3-0.2,0.4,0l0.3,0.4
				c0.2,0.2,0.3,0.3,0.6,0.3h0.1c0.1,0,0.3,0,0.3-0.1c0-0.1,0-0.2-0.1-0.3l-0.5-0.6c-0.3-0.4-0.5-0.6-0.9-0.6
				c-0.4,0-0.6,0.2-0.9,0.6l-0.5,0.6c-0.1,0.1-0.1,0.2-0.1,0.3C-33.1,111-33,111-32.9,111z"/>
			<path id="XMLID_12813_" class="st1" d="M-22,111.3c-0.9,0-1.5,0.3-1.8,0.8c-0.3-0.5-0.9-0.8-1.8-0.8c-1.6,0-2.4,0.7-2.4,2.1v3
				c0,0.4,0.2,0.4,0.5,0.4h0.1c0.4,0,0.5-0.1,0.5-0.4v-3c0-0.8,0.3-1.1,1.3-1.1c1,0,1.3,0.3,1.3,1.1v3c0,0.3,0.1,0.4,0.5,0.4h0.1
				c0.4,0,0.5-0.1,0.5-0.4v-3c0-0.7,0.2-1.1,1.3-1.1c1.1,0,1.3,0.4,1.3,1.1v3c0,0.3,0.1,0.4,0.5,0.4h0.1c0.3,0,0.5-0.1,0.5-0.4v-3
				C-19.6,112-20.4,111.3-22,111.3z"/>
			<path id="XMLID_12812_" class="st1" d="M-9.8,109.7h-0.1c-0.4,0-0.5,0.1-0.5,0.5v5.5c0,0.3-0.1,0.3-0.2,0.3c-0.1,0-0.2,0-0.3-0.3
				l-1.8-5c-0.3-0.8-0.6-1-1.3-1c-0.9,0-1.3,0.4-1.3,1.3v5.5c0,0.3,0.1,0.5,0.5,0.5h0.1c0.4,0,0.5-0.1,0.5-0.5v-5.5
				c0-0.3,0.1-0.3,0.2-0.3c0.1,0,0.2,0,0.3,0.3l1.7,4.9c0.3,0.8,0.6,1.1,1.4,1.1c0.9,0,1.2-0.4,1.2-1.3v-5.5
				C-9.3,109.9-9.4,109.7-9.8,109.7z"/>
			<path id="XMLID_12809_" class="st1" d="M-5.9,111.3c-0.5,0-0.9,0-1.3,0.1c-0.3,0.1-0.4,0.1-0.4,0.5v0.1c0,0.1,0,0.2,0.1,0.3
				c0.1,0.1,0.3,0.1,0.4,0c0.4-0.1,0.8-0.1,1.3-0.1c1,0,1.5,0.3,1.5,0.9v0.5h-1.3c-1.7,0-2.5,0.5-2.5,1.6c0,1.1,0.8,1.7,2.3,1.7
				c1.8,0,2.6-0.5,2.6-1.8v-2.1C-3.3,111.9-4.2,111.3-5.9,111.3z M-4.4,114.4v0.7c0,0.7-0.4,0.9-1.5,0.9c-1.1,0-1.2-0.5-1.2-0.8
				c0-0.6,0.4-0.8,1.5-0.8H-4.4z"/>
			<path id="XMLID_12808_" class="st1" d="M2.4,111.4H2.3c-0.4,0-0.5,0.1-0.6,0.4l-1,3.7c-0.1,0.4-0.3,0.5-0.6,0.5
				c-0.4,0-0.5-0.1-0.6-0.5l-1.1-3.7c-0.1-0.3-0.2-0.4-0.6-0.4h-0.1c-0.2,0-0.3,0-0.4,0.1c-0.1,0.1,0,0.2,0,0.4l1.1,3.7
				c0.2,0.9,0.6,1.3,1.4,1.3c0.2,0,0.3,0,0.4-0.1c-0.3,0.9-0.8,1.3-1.5,1.3c-0.2,0-0.3,0-0.4,0.1c-0.1,0.1,0,0.2,0,0.3l0,0.1
				c0.1,0.3,0.2,0.4,0.4,0.4c0,0,0.1,0,0.1,0c1.2-0.1,2.1-0.9,2.5-2.3l1.4-4.9c0-0.1,0.1-0.3,0-0.4C2.7,111.4,2.6,111.4,2.4,111.4z"
				/>
			<path id="XMLID_12807_" class="st1" d="M11.9,109.7H6.7c-0.4,0-0.5,0.1-0.5,0.4v0.1c0,0.3,0.1,0.4,0.5,0.4h2v5.7
				c0,0.3,0.1,0.5,0.5,0.5h0.1c0.4,0,0.5-0.1,0.5-0.5v-5.7h2c0.4,0,0.5-0.1,0.5-0.4v-0.1C12.4,109.8,12.3,109.7,11.9,109.7z"/>
			<path id="XMLID_12806_" class="st1" d="M19.2,111.4H19c-0.2,0-0.4,0-0.4,0.3c0,0.7-0.2,0.8-0.4,0.8v-0.6c0-0.3-0.1-0.4-0.5-0.4
				h-0.1c-0.4,0-0.5,0.1-0.5,0.4v3c0,0.7-0.2,1.1-1.5,1.1c-1.3,0-1.5-0.4-1.5-1.1v-3c0-0.3-0.1-0.4-0.5-0.4h-0.1
				c-0.4,0-0.5,0.1-0.5,0.4v3c0,1.4,0.9,2.1,2.6,2.1c1.7,0,2.6-0.7,2.6-2.1v-1.6c0.9-0.1,1.4-0.6,1.4-1.6
				C19.6,111.5,19.4,111.4,19.2,111.4z"/>
			<path id="XMLID_12805_" class="st1" d="M15.5,110.7c0.1,0.2,0.3,0.3,0.6,0.3h0.1c0.1,0,0.3,0,0.3-0.1c0.1-0.1,0-0.2-0.1-0.3
				l-0.5-0.9c-0.2-0.3-0.3-0.4-0.7-0.4h-0.1c-0.2,0-0.3,0-0.4,0.1c0,0.1,0,0.2,0.1,0.3L15.5,110.7z"/>
			<path id="XMLID_12804_" class="st1" d="M23.8,109.7c-0.5,0-0.9,0.2-1.3,0.6l-0.7,0.8c-0.1,0.1-0.2,0.2-0.2,0.3
				c0,0.1,0.1,0.2,0.2,0.3l0.1,0.1c0.3,0.2,0.4,0.2,0.6,0l0.6-0.7c0.2-0.3,0.4-0.3,0.5-0.3c0.1,0,0.1,0,0.2,0.1c0,0.1,0,0.2,0,0.6
				v5.1c0,0.3,0.1,0.5,0.5,0.5h0.1c0.4,0,0.5-0.1,0.5-0.5V111C25,110.1,24.7,109.7,23.8,109.7z"/>
			<path id="XMLID_12801_" class="st1" d="M28.7,109.6c-1.8,0-2.7,0.8-2.7,2.3c0,1.5,0.8,2.1,2.7,2.1c0.7,0,1.2-0.1,1.6-0.2v0.4
				c0,0.6-0.1,1-0.4,1.3c-0.3,0.2-0.7,0.4-1.5,0.4c-0.6,0-1.1-0.1-1.6-0.2c-0.1,0-0.3-0.1-0.4,0c-0.1,0.1-0.1,0.2-0.1,0.3v0.1
				c0,0.3,0.1,0.4,0.4,0.5c0.5,0.2,1,0.2,1.6,0.2c2.1,0,3-0.8,3-2.6v-1.9C31.4,110.5,30.6,109.6,28.7,109.6z M28.6,110.6
				c0.7,0,1.1,0.1,1.4,0.4c0.2,0.3,0.3,0.8,0.3,1.4v0.5c-0.4,0.1-0.9,0.2-1.5,0.2c-1.2,0-1.6-0.3-1.6-1.3S27.5,110.6,28.6,110.6z"/>
			<path id="XMLID_12798_" class="st1" d="M35.1,112.5c-0.6,0-1.2,0.1-1.7,0.2v-0.4c0-0.6,0.1-1,0.4-1.3c0.3-0.2,0.7-0.4,1.5-0.4
				c0.6,0,1.1,0.1,1.6,0.2c0.2,0,0.3,0,0.4,0c0.1-0.1,0.1-0.2,0.1-0.3v-0.1c0-0.3-0.2-0.4-0.4-0.5l-0.1,0c-0.5-0.2-1-0.2-1.6-0.2
				c-2.1,0-3,0.8-3,2.6v1.9c0,1.9,0.9,2.8,2.8,2.8c1.8,0,2.7-0.8,2.7-2.3C37.8,113.1,36.9,112.5,35.1,112.5z M35.1,116
				c-0.7,0-1.1-0.1-1.4-0.4c-0.2-0.3-0.3-0.8-0.3-1.4v-0.5c0.5-0.1,1-0.2,1.6-0.2c1.2,0,1.6,0.3,1.6,1.3
				C36.6,115.6,36.2,116,35.1,116z"/>
			<path id="XMLID_12797_" class="st1" d="M42.3,113.2c0.6-0.3,0.9-0.8,0.9-1.5c0-1.4-0.9-2-2.7-2c-0.6,0-1.2,0.1-1.6,0.2
				c-0.3,0.1-0.5,0.1-0.5,0.5v0.2c0,0.1,0,0.3,0.1,0.3c0.1,0.1,0.3,0.1,0.4,0c0.5-0.1,1.1-0.2,1.6-0.2c1.3,0,1.5,0.4,1.5,1.1
				c0,0.6-0.3,1-1.5,1h-0.2c-0.3,0-0.4,0.1-0.4,0.4v0.1c0,0.3,0.2,0.4,0.4,0.4h0.2c1.1,0,1.6,0.4,1.6,1.2c0,0.8-0.3,1.2-1.7,1.2
				c-0.6,0-1.2-0.1-1.7-0.2c-0.1,0-0.3-0.1-0.4,0c-0.1,0.1-0.1,0.2-0.1,0.3v0.2c0,0.3,0.1,0.4,0.4,0.5c0.5,0.1,1.1,0.2,1.8,0.2
				c1.9,0,2.8-0.7,2.8-2.2C43.4,114,43,113.4,42.3,113.2z"/>
		</g>
		<g id="XMLID_12792_">
			<defs>
				<rect id="XMLID_12793_" x="-84" y="1.8" width="130.5" height="100.2"/>
			</defs>
			<clipPath id="XMLID_2_">
				<use xlink:href="#XMLID_12793_"  style="overflow:visible;"/>
			</clipPath>
			<g id="XMLID_12794_" class="st2">
				<linearGradient id="XMLID_3_" gradientUnits="userSpaceOnUse" x1="-100.5913" y1="31.1649" x2="28.1843" y2="66.5887">
					<stop  offset="0" style="stop-color:#8B5A1D"/>
					<stop  offset="1.000000e-002" style="stop-color:#8B5A1D"/>
					<stop  offset="4.000000e-002" style="stop-color:#C89D52"/>
					<stop  offset="6.000000e-002" style="stop-color:#A67537"/>
					<stop  offset="0.11" style="stop-color:#854E14"/>
					<stop  offset="0.16" style="stop-color:#926026"/>
					<stop  offset="0.19" style="stop-color:#A37235"/>
					<stop  offset="0.23" style="stop-color:#B78844"/>
					<stop  offset="0.27" style="stop-color:#C89D50"/>
					<stop  offset="0.28" style="stop-color:#D2A557"/>
					<stop  offset="0.29" style="stop-color:#D8B05D"/>
					<stop  offset="0.35" style="stop-color:#EAD080"/>
					<stop  offset="0.4" style="stop-color:#FCE68F"/>
					<stop  offset="0.42" style="stop-color:#F8E08A"/>
					<stop  offset="0.44" style="stop-color:#F6DD86"/>
					<stop  offset="0.48" style="stop-color:#E3C471"/>
					<stop  offset="0.5" style="stop-color:#E1BE6B"/>
					<stop  offset="0.53" style="stop-color:#DCB864"/>
					<stop  offset="0.56" style="stop-color:#E3C16E"/>
					<stop  offset="0.59" style="stop-color:#EFD581"/>
					<stop  offset="0.61" style="stop-color:#F8E088"/>
					<stop  offset="0.64" style="stop-color:#FCE68F"/>
					<stop  offset="0.65" style="stop-color:#F5DB87"/>
					<stop  offset="0.67" style="stop-color:#ECCF7B"/>
					<stop  offset="0.69" style="stop-color:#E0BA68"/>
					<stop  offset="0.72" style="stop-color:#D0A552"/>
					<stop  offset="0.75" style="stop-color:#C89C4C"/>
					<stop  offset="0.78" style="stop-color:#BF9243"/>
					<stop  offset="0.8" style="stop-color:#B98D3D"/>
					<stop  offset="0.83" style="stop-color:#B38838"/>
					<stop  offset="0.85" style="stop-color:#B98E3D"/>
					<stop  offset="0.87" style="stop-color:#BD9441"/>
					<stop  offset="0.91" style="stop-color:#CFA74E"/>
					<stop  offset="0.93" style="stop-color:#DFB85C"/>
					<stop  offset="1" style="stop-color:#BD9341"/>
				</linearGradient>
				<polygon id="XMLID_12795_" class="st3" points="-148.6,99.8 34.5,150.5 76.2,-2.1 -106.9,-52.7 				"/>
			</g>
		</g>
	</g>
	<g id="XMLID_12766_">
		<path id="XMLID_12788_" class="st4" d="M-80.7,5.1v93.6H43.2V5.1H-80.7z M-18.8,55.5c-10.6,0-19.1-8.6-19.1-19.2
			c0-10.5,8.6-19.2,19.1-19.2c10.7,0,19.2,8.7,19.2,19.2C0.5,46.9-8.1,55.5-18.8,55.5z"/>
		<path id="XMLID_12786_" class="st1" d="M-18.8,54c-9.7,0-17.6-7.9-17.6-17.7c0-9.7,7.9-17.6,17.6-17.6C-8.9,18.7-1,26.6-1,36.3
			C-1,46-8.9,54-18.8,54z"/>
		<g id="XMLID_12767_">
			<path id="XMLID_12785_" class="st0" d="M-62.4,63.3l5.3,13.9c0,0,3.2-8.3,4.3-11c0.8-2.1,1-2.9,3.2-2.9c2.2,0,4.1,0,4.1,0
				l-9.5,22.9h-4.5l-9.3-22.9H-62.4z"/>
			<rect id="XMLID_12784_" x="-43" y="63.3" class="st0" width="5.8" height="22.9"/>
			<path id="XMLID_12783_" class="st0" d="M-19.3,66.7c0,1-0.7,1.7-1.7,1.7c-1.1,0-6.7,0-6.7,0v3.8h6.3v5h-6.3v9h-5.8V63.3h14.2
				C-19.3,63.3-19.3,65.7-19.3,66.7"/>
			<path id="XMLID_12780_" class="st0" d="M-5.7,63.3c-6.3,0-11.4,5.1-11.4,11.4c0,6.3,5.1,11.4,11.4,11.4c6.3,0,11.4-5.1,11.4-11.4
				C5.7,68.5,0.6,63.3-5.7,63.3 M-5.7,80.8c-3.3,0-6.1-2.7-6.1-6.1c0-3.3,2.7-6.1,6.1-6.1c3.3,0,6.1,2.7,6.1,6.1
				C0.3,78.1-2.4,80.8-5.7,80.8z"/>
			<path id="XMLID_12779_" class="st0" d="M25.4,63.3v14.1c0,0-7.2-9.4-8.9-11.8c-1.3-1.9-1.8-2.2-3.3-2.2c-1.5,0-4.1,0-4.1,0v22.9
				h5.8v-14c0,0,7.2,9.6,9,11.8c1.7,2.2,2.4,2.2,3.8,2.2c1.4,0,3.6,0,3.6,0v-23H25.4z"/>
			<g id="XMLID_12774_">
				<path id="XMLID_12778_" class="st4" d="M-18.8,18.7c-9.7,0-17.6,7.9-17.6,17.6c0,9.8,7.9,17.7,17.6,17.7C-8.9,54-1,46-1,36.3
					C-1,26.6-8.9,18.7-18.8,18.7z"/>
				<path id="XMLID_12777_" class="st0" d="M-17.9,25.1c0.3-0.3,0.5-0.6,0.5-1.1c0-0.8-0.6-1.4-1.4-1.4c-0.7,0-1.4,0.6-1.4,1.4
					c0,0.4,0.2,0.8,0.5,1.1c-2.8,1-3.5,1.1-5.9,2.9h13.5C-14.3,26.3-15.1,26.1-17.9,25.1"/>
				<path id="XMLID_12776_" class="st0" d="M-18.4,29.3h-0.1h-0.2h-0.2H-19h-4.4h-3.4h-0.1c0,0-2.8,2.3-2.7,5.7
					c-0.7,0.6-1.7-0.1-1-1.3c0.9-1.7,0-2.5-0.8-2.5c-0.8-0.1-1.4,0.3-1.2,1c0.2,0.6,1.5-0.4,1.1,0.8c-0.1,0.5-0.5,1.3-0.5,2.1
					c0,1.4,1,2,2.9,1.8c0.3,0.8,0.7,1.6,1.4,2.5h4.9h3.1h0.8h0.1h0.2h0.2h0.1h0.8h3.1h4.9c0.7-0.9,1.1-1.7,1.4-2.5
					c1.9,0.2,2.9-0.4,2.9-1.8c0-0.8-0.4-1.6-0.5-2.1c-0.4-1.1,0.9-0.2,1.1-0.8c0.2-0.8-0.4-1.1-1.2-1c-0.8,0.1-1.7,0.8-0.8,2.5
					c0.6,1.2-0.3,1.9-1,1.3c0.1-3.4-2.7-5.7-2.7-5.7h-0.1H-14H-18.4z"/>
				<path id="XMLID_12775_" class="st0" d="M-18.7,40.5h-1.1h0h-1.8h-5.6c3.6,8-2.4,5.7-1,7.5c4.6,0,4.8-1.5,3.9-4.8h5.5h5.5
					c-0.9,3.3-0.7,4.8,3.9,4.8c1.4-1.8-4.6,0.4-1-7.5h-5.6h-1.8h0H-18.7z"/>
			</g>
			<g id="XMLID_12768_">
				<path id="XMLID_12769_" class="st0" d="M36,55.6l0.2,0l0.1,0l0.1,0l0.1,0l0.1,0l0.1,0l0.1,0l0.1,0.1l0.1,0.1l0.1,0.1l0.1,0.1
					l0.1,0.1l0.1,0.1l0.1,0.1l0.1,0.1l0.1,0.1l0.1,0.1l0.1,0.1l0.1,0.1l0.1,0.1l0.1,0.1l0.1,0.1l0.1,0.1l0.1,0.1l0.1,0.1l0,0.1
					l0,0.1l0,0.1l0,0.1l0,0.1l0,0.1v0.1v0.1l0,0.1l0,0.1l0,0.1l0,0.1l0,0.1l0,0.1l-0.1,0.1l-0.1,0.1l-0.1,0.1L38.5,60l-0.1,0.1
					l-0.1,0.1l-0.1,0.1l-0.1,0.1l-0.1,0.1L38,60.7l-0.1,0.1l-0.1,0.1l-0.1,0.1L37.5,61l-0.1,0.1l-0.1,0.1l-0.1,0.1L37,61.2l-0.1,0
					l-0.1,0l-0.1,0l-0.1,0l-0.1,0l-0.1,0l-0.2,0l-0.1,0l-0.1,0l-0.1,0l-0.1,0l-0.1,0l-0.1,0l-0.1,0l-0.1-0.1l-0.1-0.1l-0.1-0.1
					L34.5,61l-0.1-0.1l-0.1-0.1l-0.1-0.1l-0.1-0.1L34,60.6l-0.1-0.1l-0.1-0.1l-0.1-0.1l-0.1-0.1L33.5,60l-0.1-0.1l-0.1-0.1l-0.1-0.1
					l-0.1-0.1l0-0.1l0-0.1l0-0.1l0-0.1l0-0.1l0-0.1l0-0.1l0-0.1l0-0.1l0-0.1l0-0.1l0-0.1l0-0.1l0-0.1l0.1-0.1l0.1-0.1l0.1-0.1
					l0.1-0.1l0.1-0.1l0.1-0.1l0.1-0.1l0.1-0.1l0.1-0.1l0.1-0.1l0.1-0.1l0.1-0.1l0.1-0.1l0.1-0.1l0.1-0.1l0.1-0.1l0.1-0.1l0.1-0.1
					l0.1,0l0.1,0l0.1,0l0.1,0l0.1,0l0.1,0L36,55.6z M36,56.1c1.3,0,2.4,1.1,2.4,2.4c0,1.3-1.1,2.4-2.4,2.4c-1.3,0-2.4-1.1-2.4-2.4
					C33.6,57.2,34.7,56.1,36,56.1L36,56.1z M35,59.9v-2.7h1.4c0.3,0,0.5,0.1,0.7,0.3c0.1,0.1,0.2,0.3,0.2,0.5c0,0.2,0,0.3-0.1,0.4
					c-0.1,0.1-0.2,0.2-0.3,0.2c0.1,0.1,0.2,0.1,0.3,0.2c0.1,0.1,0.1,0.3,0.1,0.5c0,0.2,0,0.3,0,0.4c0,0.1,0,0.1,0.1,0.1v0.1h-0.6
					c0-0.1,0-0.1,0-0.2c0-0.1,0-0.2,0-0.3c0-0.2,0-0.3-0.1-0.4c-0.1-0.1-0.2-0.1-0.4-0.1h-0.6v1.1H35z M35.6,58.3h0.7
					c0.1,0,0.3,0,0.3-0.1c0.1-0.1,0.1-0.2,0.1-0.3c0-0.1,0-0.2-0.1-0.2c-0.1-0.1-0.2-0.1-0.3-0.1h-0.7V58.3z"/>
			</g>
		</g>
	</g>
</g>
</svg>
